<?xml version="1.0" encoding="UTF-8"?>
<svg id="Layer_2" data-name="Layer 2" xmlns="http://www.w3.org/2000/svg" viewBox="0 0 58.38 30.67">
  <defs>
    <style>
      .cls-1 {
        fill: #393939;
        stroke: #393939;
        stroke-linecap: round;
        stroke-linejoin: round;
        stroke-width: 4px;
      }
    </style>
  </defs>
  <g id="Layer_1-2" data-name="Layer 1">
    <path class="cls-1" d="M2.94,13.06c-1.26,1.25-1.26,3.29,0,4.54,0,0,0,0,0,0l10.12,10.12c1.25,1.26,3.29,1.26,4.54,0h0s10.12-10.12,10.12-10.12c1.26-1.25,1.26-3.29,0-4.54h0S17.61,2.94,17.61,2.94c-1.25-1.26-3.29-1.26-4.54,0,0,0,0,0,0,0L2.94,13.06Z"/>
    <path class="cls-1" d="M30.65,13.06c-1.26,1.25-1.26,3.29,0,4.54,0,0,0,0,0,0l10.12,10.12c1.25,1.26,3.29,1.26,4.54,0h0s10.12-10.12,10.12-10.12c1.26-1.25,1.26-3.29,0-4.54h0s-10.12-10.12-10.12-10.12c-1.25-1.26-3.29-1.26-4.54,0,0,0,0,0,0,0l-10.12,10.12Z"/>
  </g>
</svg>