<?xml version="1.0" encoding="UTF-8"?>
<svg id="Layer_2" data-name="Layer 2" xmlns="http://www.w3.org/2000/svg" viewBox="0 0 58.38 30.67">
  <defs>
    <style>
      .cls-1 {
        fill: #393939;
      }

      .cls-2 {
        fill: none;
        stroke: #393939;
        stroke-linecap: round;
        stroke-linejoin: round;
        stroke-width: 4px;
      }
    </style>
  </defs>
  <g id="Layer_1-2" data-name="Layer 1">
    <path class="cls-2" d="M2.94,13.06c-1.26,1.25-1.26,3.29,0,4.55,0,0,10.12,10.12,10.12,10.12,1.25,1.26,3.29,1.26,4.55,0,0,0,10.12-10.12,10.12-10.12,1.26-1.25,1.26-3.29,0-4.55,0,0-10.12-10.12-10.12-10.12-1.25-1.26-3.29-1.26-4.55,0,0,0-10.12,10.12-10.12,10.12Z"/>
    <path class="cls-2" d="M30.65,13.06c-1.26,1.25-1.26,3.29,0,4.55,0,0,10.12,10.12,10.12,10.12,1.25,1.26,3.29,1.26,4.55,0,0,0,10.12-10.12,10.12-10.12,1.26-1.25,1.26-3.29,0-4.55,0,0-10.12-10.12-10.12-10.12-1.25-1.26-3.29-1.26-4.55,0,0,0-10.12,10.12-10.12,10.12Z"/>
    <path class="cls-1" d="M2.95,13.07L13.07,2.95h0c.63-.63,1.45-.95,2.27-.95v26.68c-1.95.64-10.97-10.13-12.39-11.07-1.26-1.26-1.26-3.29,0-4.54Z"/>
  </g>
</svg>